<svg width="1440" height="1024" viewBox="0 0 1440 1024" fill="none" xmlns="http://www.w3.org/2000/svg">
<path d="M747.517 935.705V882.714L692.427 853.859V910.59L641.117 937.472V881.736L586.973 910.093L534.718 882.731V830.735C536.306 830.357 537.478 829.054 537.478 827.493C537.478 827.184 537.422 826.892 537.327 826.618L587.426 800.371L587.899 800.131V742.422L533.773 770.779L480.573 742.903L427.374 770.762L375.12 743.383V688.642L429.264 660.285L375.12 631.929V575.198L320.502 603.812L320.029 604.052V658.793L271.348 633.284C271.424 633.009 271.499 632.718 271.499 632.409C271.499 630.848 270.327 629.544 268.739 629.167V521.435L321.466 493.816L321.939 493.576V435.867L267.321 464.481L266.849 464.722V520.457L214.594 547.836L163.285 520.955L215.067 493.833L215.54 493.593V435.884L160.922 464.499L160.45 464.739V575.215L111.768 549.706C111.844 549.432 111.92 549.14 111.92 548.831C111.92 547.27 110.747 545.966 109.159 545.589V492.598L56.9618 465.236L108.271 438.355L109.216 438.852V437.857L110.161 437.36L109.216 436.862V381.127L58.6443 354.64C58.72 354.365 58.7956 354.074 58.7956 353.765C58.7956 351.912 57.1319 350.402 55.0901 350.402C53.0484 350.402 51.3847 351.912 51.3847 353.765C51.3847 355.326 52.5568 356.63 54.1449 357.007V409.003L0 437.36L53.1996 465.219L1.4179 492.341L0.945266 492.581V548.317L0 548.814L0.945266 549.312V605.047L53.1618 632.409L1.36118 659.548L0.88855 659.788V717.497L55.506 688.882L55.9787 688.642V633.884L56.0165 633.902V577.171L105.624 551.181C106.078 551.593 106.664 551.902 107.307 552.056V605.047L159.561 632.409L107.798 659.548L107.326 659.788V715.541L57.7558 741.513C57.0752 740.896 56.1488 740.518 55.1279 740.518C53.0862 740.518 51.4225 742.028 51.4225 743.88C51.4225 745.442 52.5946 746.745 54.1827 747.123V854.786L1.36118 882.456L0.88855 882.697V940.405L0.964172 940.354V995.146L54.1638 1023.01V1024L55.109 1023.5L56.0543 1024V1023.01L108.781 995.386L109.254 995.146V937.437L57.7558 964.422C57.0752 963.804 56.1488 963.427 55.1279 963.427C54.0881 963.427 53.1618 963.804 52.5001 964.422L3.78107 938.895L54.1827 912.494V912.546L108.328 884.189L162.472 912.546V855.798L215.143 828.196L215.615 827.956V774.965C217.203 774.587 218.375 773.284 218.375 771.723C218.375 769.87 216.712 768.36 214.67 768.36C212.628 768.36 210.965 769.87 210.965 771.723C210.965 772.031 211.021 772.323 211.116 772.597L161.017 798.844L160.544 799.084V853.808L109.292 826.961V716.467L161.489 689.123L215.634 717.479V660.766L265.242 634.776C265.695 635.188 266.282 635.497 266.924 635.651V688.642L317.496 715.129C317.42 715.404 317.345 715.695 317.345 716.004C317.345 716.313 317.402 716.604 317.496 716.879L267.397 743.126L266.924 743.366V854.769L217.619 880.604C216.939 879.746 215.842 879.18 214.594 879.18C212.553 879.18 210.889 880.689 210.889 882.542C210.889 884.103 212.061 885.407 213.649 885.784V940.388L266.849 912.529V967.269L321.939 996.124V938.415L269.741 911.07L321.069 884.172L370.696 910.161C370.62 910.436 370.544 910.727 370.544 911.036C370.544 912.889 372.208 914.398 374.25 914.398C376.292 914.398 377.955 912.889 377.955 911.036C377.955 909.475 376.783 908.171 375.195 907.794V800.079L427.449 772.7L478.759 799.582L426.977 826.704L426.504 826.944V882.679L425.559 883.177L426.504 883.674V938.415L373.777 966.034L373.305 966.274V1023.98L427.922 995.369L428.395 995.129V940.388L479.704 967.269V968.264L480.649 967.767L534.794 996.124V942.155C535.437 942 536.023 941.692 536.476 941.28L586.084 967.269V1023.98L639.284 996.124V996.141L693.901 967.527L694.374 967.286V912.546L743.055 938.055C742.979 938.329 742.904 938.621 742.904 938.93C742.904 940.782 744.567 942.292 746.609 942.292C748.651 942.292 750.315 940.782 750.315 938.93C750.277 937.386 749.105 936.082 747.517 935.705ZM162.397 465.717L213.706 438.835V492.581L162.397 519.462V465.717ZM54.0881 687.664L2.77908 714.546V660.8L54.0881 633.919V687.664ZM107.363 940.422V994.168L56.0543 1021.05V970.048C57.6423 969.671 58.8145 968.367 58.8145 966.806C58.8145 966.497 58.7578 966.206 58.6632 965.931L107.363 940.422ZM54.1638 970.048V1021.05L2.87361 994.168V940.422L51.5548 965.931C51.4792 966.206 51.4036 966.497 51.4036 966.806C51.4036 968.367 52.5757 969.654 54.1638 970.048ZM639.246 938.432L587.937 965.314V911.568L639.246 884.686V938.432ZM532.847 935.705C532.204 935.859 531.618 936.151 531.164 936.579L482.502 911.088L532.866 884.704V935.705H532.847ZM481.557 854.854V801.109L530.238 826.618C530.162 826.892 530.086 827.184 530.086 827.493C530.086 829.054 531.259 830.357 532.847 830.735V881.736L481.557 854.854ZM532.847 824.233C532.204 824.388 531.618 824.696 531.164 825.108L482.502 799.616L532.866 773.232V824.233H532.847ZM480.611 856.347L531.92 883.228L508.61 895.442L480.611 910.11L429.302 883.228L452.612 871.014L480.611 856.347ZM481.557 912.563L530.238 938.072C530.162 938.347 530.086 938.638 530.086 938.947C530.086 939.256 530.143 939.547 530.238 939.822L481.557 965.331V912.563ZM586.046 799.119L536.439 825.108C535.985 824.696 535.399 824.388 534.756 824.233V772.237L586.065 745.356V799.119H586.046ZM321.977 712.779V661.778L373.286 688.659V742.405L324.604 716.896C324.68 716.622 324.756 716.33 324.756 716.021C324.737 714.46 323.565 713.156 321.977 712.779ZM321.977 719.263C322.619 719.109 323.205 718.8 323.659 718.389L372.322 743.88L321.977 770.264V719.263ZM374.231 687.167L322.922 660.285L348.085 647.111L374.231 633.421L425.54 660.303L374.231 687.167ZM321.977 605.047L373.286 578.166V631.912L321.977 658.793V605.047V605.047ZM268.777 465.717L320.086 438.835V492.581L268.777 519.462V465.717V465.717ZM266.887 576.193L250.099 584.993L215.577 603.075V549.329L266.887 522.447V576.193ZM213.706 658.793L188.051 645.361L162.397 631.929V578.183L188.051 591.615L213.706 605.047V658.793V658.793ZM162.397 522.447L213.706 549.329V603.075L188.051 589.642L162.397 576.21V522.447ZM107.326 545.589C106.683 545.743 106.097 546.035 105.643 546.464L56.0354 520.474V466.729L107.344 493.61V545.589H107.326ZM107.326 382.122V435.867L56.0165 408.986V356.99C56.6593 356.836 57.2453 356.544 57.6991 356.115L107.326 382.122ZM55.0712 410.478L106.38 437.36L56.0165 463.744L55.0712 464.241L54.126 463.744L3.76216 437.36L55.0712 410.478ZM2.81689 493.593L54.126 466.712V520.457L2.81689 547.339V493.593V493.593ZM2.81689 550.307L54.126 577.188V630.934L2.81689 604.052V550.307V550.307ZM55.0712 575.713L3.76216 548.831L27.0724 536.617L55.0712 521.95L104.698 547.939C104.622 548.214 104.546 548.505 104.546 548.814C104.546 549.123 104.603 549.414 104.698 549.689L55.0712 575.713ZM109.216 552.073C109.859 551.919 110.445 551.627 110.899 551.199L160.506 577.188V630.934L109.197 604.052V552.073H109.216ZM109.216 660.783L160.525 633.902V687.647L109.216 714.529V660.783ZM56.0543 747.123C57.6423 746.745 58.8145 745.442 58.8145 743.88C58.8145 743.572 58.7578 743.28 58.6632 743.006L107.344 717.497V771.242L56.0354 798.124V747.123H56.0543ZM107.363 826.995L56.0543 853.877V800.131L107.363 773.249V826.995ZM54.0881 910.573L2.77908 937.454V883.709L54.0881 856.827V910.573ZM56.0543 855.849L107.363 828.968V882.714L56.0543 909.595V855.849V855.849ZM162.397 800.114L212.004 774.124C212.458 774.536 213.044 774.845 213.687 774.999V826.995L162.378 853.877V800.114H162.397ZM160.544 856.81V909.595L109.235 882.714V828.968L160.487 855.815V856.827L160.544 856.81ZM213.706 714.529L162.397 687.647V633.902L188.051 647.334L213.706 660.766V714.529V714.529ZM215.596 658.81V605.047L244.919 589.694L266.905 578.183V629.184C265.317 629.561 264.145 630.865 264.145 632.426C264.145 632.735 264.202 633.027 264.296 633.301L215.596 658.81ZM268.777 687.664V635.668C269.42 635.514 270.006 635.222 270.46 634.794L320.067 660.783V712.779C319.424 712.933 318.838 713.225 318.385 713.654L268.777 687.664ZM268.777 744.378L318.385 718.389C318.838 718.8 319.424 719.109 320.067 719.263V771.259L319.122 771.757L268.758 798.141V744.378H268.777ZM268.777 855.849L320.086 828.968V882.714L268.777 909.595V855.849V855.849ZM320.086 826.995L268.777 853.877V800.131L320.086 773.249V826.995V826.995ZM215.502 937.454V885.836C217.09 885.458 218.262 884.155 218.262 882.594C218.262 882.491 218.243 882.388 218.224 882.285L266.792 856.844V910.59L215.502 937.454ZM320.011 993.173L268.701 966.291V912.546L320.011 939.427V993.173ZM373.286 907.828C372.643 907.983 372.057 908.274 371.603 908.703L321.996 882.714V828.968L373.305 855.849V907.828H373.286ZM321.977 826.995V773.249L373.286 800.131V853.877L321.977 826.995ZM374.231 798.621L322.922 771.74L374.212 744.858L375.157 745.356L425.521 771.74L374.231 798.621ZM480.611 744.875L531.92 771.757L481.557 798.141L480.611 798.638L479.666 798.141L429.302 771.757L480.611 744.875ZM428.357 827.973L479.666 801.092V854.837L428.357 881.719V827.973ZM426.466 994.185L375.157 1021.07V967.321L426.466 940.439V994.185ZM428.357 938.449V884.704L479.666 911.585V965.331L428.357 938.449ZM482.502 966.823L531.164 941.331C531.618 941.743 532.204 942.052 532.847 942.206V993.207L482.502 966.823ZM534.737 935.705V884.704L586.046 911.585V965.331L537.365 939.822C537.441 939.547 537.516 939.256 537.516 938.947C537.516 937.386 536.325 936.082 534.737 935.705ZM587.937 1021.05V967.321L639.246 940.439V994.185L587.937 1021.05ZM692.427 966.326L641.117 993.207V939.462L692.427 912.58V966.326ZM694.317 910.59V856.844L745.626 883.726V935.722C744.983 935.876 744.397 936.168 743.944 936.597L694.317 910.59ZM1440 586.675L1386.8 558.815L1438.58 531.694L1439.05 531.453V475.701L1440 475.203L1439.05 474.706V418.97L1386.84 391.608L1438.64 364.469L1439.11 364.229V306.521L1384.49 335.135L1384.02 335.375V390.133L1383.98 390.116V446.846L1334.38 472.836C1333.92 472.424 1333.34 472.115 1332.69 471.961V363.251L1279.49 335.392V279.656L1228.92 253.169C1229.02 252.878 1229.07 252.586 1229.07 252.277C1229.07 251.969 1229.02 251.677 1228.92 251.403L1279.02 225.156L1279.49 224.916V170.192L1330.75 197.039V309.488L1382.24 282.504C1382.92 283.122 1383.85 283.499 1384.87 283.499C1386.91 283.499 1388.58 281.989 1388.58 280.137C1388.58 278.576 1387.41 277.272 1385.82 276.894V169.231L1438.62 141.561L1439.09 141.321V83.6121L1385.82 111.523V111.471L1331.67 139.828L1277.55 111.471V168.219L1224.88 195.821L1224.4 196.061V249.052C1222.82 249.43 1221.64 250.734 1221.64 252.295C1221.64 253.856 1222.82 255.159 1224.4 255.537V308.528L1277.6 336.387V391.128L1226.29 418.009V363.269L1173.09 335.409V334.414L1172.15 334.912L1171.2 334.414V335.409L1118.48 362.994L1118 363.234V420.943L1169.5 393.958C1170.18 394.576 1171.11 394.953 1172.13 394.953C1173.15 394.953 1174.1 394.576 1174.76 393.958L1224.37 419.948V532.414L1278.51 504.057L1330.77 531.419L1383.02 558.798L1331.71 585.68L1330.77 585.182V586.177L1329.82 586.675L1330.77 587.172V642.908L1383.96 670.767V722.763C1382.38 723.14 1381.2 724.444 1381.2 726.005C1381.2 727.858 1382.87 729.368 1384.91 729.368C1386.95 729.368 1388.62 727.858 1388.62 726.005C1388.62 725.696 1388.56 725.405 1388.46 725.13L1438.56 698.884L1439.04 698.643V640.935L1385.84 668.794V615.048L1440 586.675ZM1385.89 336.37L1437.2 309.488V363.234L1385.89 390.116V336.37ZM1437.16 530.441L1385.86 557.323V503.577L1437.16 476.696V530.441ZM1437.16 473.711L1385.86 446.829V393.083L1437.16 419.965V473.711ZM1384.91 448.322L1436.22 475.203L1412.91 487.417L1384.91 502.085L1335.28 476.078C1335.36 475.804 1335.43 475.512 1335.43 475.203C1335.43 474.894 1335.38 474.603 1335.28 474.328L1384.91 448.322ZM1330.78 419.965V471.944C1330.14 472.098 1329.56 472.407 1329.1 472.819L1305.15 460.261L1279.49 446.829V393.083L1305.15 406.516L1330.78 419.965ZM1332.62 197.039L1383.93 170.158V223.903L1332.62 250.785V197.039ZM1332.62 306.521V252.775L1383.93 225.893V276.894C1382.34 277.272 1381.17 278.576 1381.17 280.137C1381.17 280.445 1381.22 280.737 1381.32 281.012L1332.62 306.521ZM1385.89 113.461L1437.2 86.5799V140.326L1385.89 167.207V113.461ZM1383.93 168.185L1332.62 195.066V141.321L1383.93 114.439V168.185ZM1279.44 114.439L1330.75 141.321V195.066L1279.49 168.219V167.207L1279.46 167.224V114.439H1279.44ZM1277.58 170.175V223.921L1227.98 249.91C1227.52 249.498 1226.94 249.19 1226.29 249.035V197.039L1277.58 170.175ZM1226.28 307.516V255.52C1226.92 255.365 1227.5 255.074 1227.96 254.645L1277.58 280.651V334.397L1226.28 307.516ZM1330.78 364.246V417.992L1305.13 404.56L1279.47 391.128V337.382L1330.78 364.246ZM1119.89 417.975V364.229L1171.2 337.348V388.349C1169.62 388.726 1168.44 390.03 1168.44 391.591C1168.44 391.9 1168.5 392.191 1168.6 392.466L1119.89 417.975ZM1173.09 388.366V337.365L1224.4 364.246V417.992L1175.72 392.5C1175.8 392.226 1175.87 391.934 1175.87 391.625C1175.85 390.047 1174.68 388.743 1173.09 388.366ZM1226.28 419.965L1277.58 393.083V446.829L1226.28 473.711V419.965ZM1226.28 475.701L1277.58 448.819V502.565L1226.28 529.446V475.701ZM1279.47 502.565V448.819L1305.13 462.251L1328.16 474.311C1328.08 474.586 1328 474.877 1328 475.186C1328 476.747 1329.18 478.051 1330.77 478.428V529.429L1279.47 502.565ZM1332.67 478.445C1333.32 478.291 1333.9 477.999 1334.36 477.57L1383.96 503.56V557.306L1332.66 530.424V478.445H1332.67ZM1383.96 560.291L1384.91 559.793L1385.86 560.291L1436.22 586.675L1384.91 613.556L1333.6 586.675L1383.96 560.291ZM1332.67 588.15L1383.98 615.031V668.777L1332.67 641.896V588.15ZM1437.16 643.886V697.631L1387.56 723.621C1387.1 723.209 1386.52 722.9 1385.87 722.746V670.75L1437.16 643.886ZM1122.67 308.013C1122.67 307.704 1122.62 307.413 1122.52 307.138L1172.62 280.892L1173.09 280.651V169.231L1222.4 143.396C1223.08 144.254 1224.18 144.82 1225.42 144.82C1227.47 144.82 1229.13 143.311 1229.13 141.458C1229.13 139.897 1227.96 138.593 1226.37 138.216V83.6121L1173.17 111.471V56.7307L1118.1 27.8764V85.5849L1170.3 112.93L1118.95 139.828L1069.32 113.822C1069.4 113.547 1069.47 113.256 1069.47 112.947C1069.47 111.094 1067.81 109.584 1065.77 109.584C1063.73 109.584 1062.06 111.094 1062.06 112.947C1062.06 114.508 1063.24 115.812 1064.82 116.189V167.19V223.921L1012.57 251.3L961.26 224.418L1013.04 197.297L1013.51 197.056V141.303L1014.46 140.806L1013.51 140.309V85.5678L1066.24 57.9487L1066.71 57.7085V0L1012.1 28.6141L1011.62 28.8543V83.595L960.315 56.7135V55.7186L959.37 56.216L905.225 27.8593V81.828C904.582 81.9824 903.996 82.2912 903.542 82.7029L853.935 56.7135V0L800.735 27.8593V27.8421L746.118 56.4562L745.645 56.6964V111.437L694.336 84.5557V83.5607L693.391 84.0582L692.445 83.5607V84.5557L640.229 111.952L586.084 83.595V140.309L534.775 167.19V112.449L479.685 83.595L426.485 55.7357V112.466L376.897 138.439C376.216 137.821 375.29 137.444 374.269 137.444C372.227 137.444 370.563 138.953 370.563 140.806C370.563 142.659 372.227 144.168 374.269 144.168C375.309 144.168 376.235 143.791 376.897 143.173L426.504 169.163V225.893L481.122 197.279L481.594 197.039V142.298L532.903 169.18V225.893L584.402 198.909C584.855 199.321 585.441 199.63 586.084 199.784V252.775L641.174 281.629V225.893L694.374 253.753V196.044L642.119 168.682L693.41 141.818L747.554 170.175V113.444L798.864 86.5628V196.044L746.137 223.663L745.664 223.903V281.612L797.162 254.628C797.843 255.245 798.769 255.623 799.79 255.623C801.832 255.623 803.495 254.113 803.495 252.26C803.495 250.699 802.323 249.395 800.735 249.018V197.039L853.462 169.42L853.935 169.18V114.439L905.244 141.321V193.317C903.656 193.694 902.484 194.998 902.484 196.559C902.484 196.868 902.54 197.159 902.635 197.434L852.536 223.68L852.063 223.921V281.629L906.208 253.272L959.408 281.132L1012.61 253.272L1065.81 281.132L1118.06 253.753V304.754C1116.47 305.131 1115.3 306.435 1115.3 307.996C1115.3 309.849 1116.96 311.358 1119.01 311.358C1121.01 311.375 1122.67 309.866 1122.67 308.013ZM1171.2 279.639L1121.6 305.629C1121.14 305.217 1120.56 304.908 1119.91 304.754V252.775L1120.86 252.277L1171.22 225.893V279.639H1171.2ZM1066.71 170.158L1118.02 197.039V250.785L1066.71 223.903V170.158ZM1119.89 197.039L1171.2 170.158V223.903L1119.89 250.785V197.039ZM1171.2 168.185L1119.89 195.066V141.321L1171.2 114.439V168.185ZM1224.48 86.5799V138.198C1222.89 138.576 1221.72 139.88 1221.72 141.441C1221.72 141.544 1221.74 141.647 1221.76 141.75L1173.19 167.19V113.461L1224.48 86.5799ZM1119.99 30.8442L1171.3 57.7257V111.471L1119.99 84.6071V30.8442ZM1066.71 116.189C1067.36 116.035 1067.94 115.743 1068.4 115.314L1118 141.303V195.049L1066.7 168.168V116.189H1066.71ZM959.389 167.687L908.08 140.806L931.39 128.592L959.389 113.925L1010.7 140.806L987.388 153.02L959.389 167.687ZM907.134 88.3297C907.777 88.1753 908.363 87.8837 908.817 87.4548L957.479 112.947L907.134 139.331V88.3297ZM958.425 111.454L909.762 85.9623C909.838 85.6879 909.913 85.3962 909.913 85.0874C909.913 84.7787 909.857 84.487 909.762 84.2126L958.443 58.7035V111.454H958.425ZM958.425 169.18V222.926L909.762 197.417C909.838 197.142 909.913 196.851 909.913 196.542C909.913 194.981 908.741 193.677 907.153 193.299V142.298L958.425 169.18ZM907.134 199.784C907.777 199.63 908.363 199.321 908.817 198.909L957.479 224.401L907.115 250.785V199.784H907.134ZM1011.62 196.044L960.315 222.926V169.18L1011.62 142.298V196.044ZM1013.51 29.8492L1064.82 2.96776V56.7135L1013.51 83.595V29.8492ZM1011.62 85.5678V139.331L960.315 112.449V58.7035L1011.62 85.5678ZM957.479 57.211L908.817 82.7029C908.363 82.2912 907.777 81.9824 907.134 81.828V30.827L957.479 57.211ZM852.044 2.98492V56.7307L800.735 83.6121V29.8835L852.044 2.98492ZM692.464 86.5628V140.309L641.155 167.19V113.444L692.464 86.5628ZM587.975 86.5628L639.284 113.444V167.19L613.629 153.758L587.975 140.326V86.5628ZM639.284 222.926L613.629 209.494L590.602 197.434C590.678 197.159 590.754 196.868 590.754 196.559C590.754 194.998 589.582 193.694 587.994 193.317V142.298L613.648 155.731L639.303 169.163V222.926H639.284ZM532.903 167.19L481.594 140.309V86.5628L532.903 113.444V167.19ZM428.414 58.6863L479.723 85.5678V139.331L428.414 112.449V58.6863ZM377.842 139.931L427.468 113.942L478.777 140.823L455.467 153.037L427.468 167.705L377.842 141.715C377.918 141.441 377.993 141.149 377.993 140.84C377.974 140.497 377.918 140.206 377.842 139.931ZM479.704 196.044L428.395 222.926V169.18L479.704 142.298V196.044V196.044ZM534.794 222.926V169.163L586.103 142.281V193.282C584.515 193.66 583.343 194.963 583.343 196.525C583.343 196.833 583.4 197.125 583.494 197.399L534.794 222.926ZM639.284 278.644L587.975 251.763V199.784C588.617 199.63 589.203 199.338 589.657 198.909L613.61 211.466L639.265 224.898V278.644H639.284ZM692.464 250.785L641.155 223.903V170.158L692.464 197.039V250.785ZM745.664 167.19L694.355 140.309V86.5628L745.664 113.444V167.19ZM747.554 111.454V57.7085L798.864 30.827V84.5728L747.554 111.454ZM852.044 58.7206V112.449L800.754 139.331V85.6021L852.044 58.7206ZM747.554 278.661V224.916L798.864 198.034V249.035C797.276 249.413 796.103 250.716 796.103 252.277C796.103 252.586 796.16 252.878 796.255 253.152L747.554 278.661ZM852.044 168.185L800.735 195.066V141.303L852.044 114.422V168.185ZM853.935 58.7035L902.616 84.1954C902.54 84.4699 902.465 84.7615 902.465 85.0703C902.465 86.6314 903.637 87.9351 905.225 88.3125V139.331L853.935 112.449V58.7035ZM853.935 224.916L903.542 198.926C903.996 199.338 904.582 199.647 905.225 199.801V251.797L853.916 278.679V224.916H853.935ZM959.37 279.159L908.061 252.277L958.425 225.893L959.37 225.396L960.315 225.893L1010.68 252.277L959.37 279.159ZM1014.46 252.277L1065.77 225.396L1117.08 252.277L1065.77 279.159L1014.46 252.277Z" fill="url(#paint0_linear_13_99)" fill-opacity="0.65"/>
<defs>
<linearGradient id="paint0_linear_13_99" x1="254.622" y1="1168.08" x2="1099.32" y2="-175.312" gradientUnits="userSpaceOnUse">
<stop stop-color="#D2D2D1" stop-opacity="0.37"/>
<stop offset="0.1074" stop-color="#DADADA" stop-opacity="0.53"/>
<stop offset="0.3674" stop-color="#EAEAEA" stop-opacity="0.54"/>
<stop offset="0.588415" stop-color="#F0F0F0" stop-opacity="0.75"/>
<stop offset="0.7773" stop-color="#F4F4F4"/>
<stop offset="0.976" stop-color="white"/>
</linearGradient>
</defs>
</svg>
